<svg width="512" height="512" viewBox="0 0 512 512" xmlns="http://www.w3.org/2000/svg">
  <!-- Orange rounded square background -->
  <rect width="512" height="512" rx="120" fill="#F97316" />

  <!-- White outlined heart -->
  <path
    d="M256 360
       C250 360 244.4 358.4 239.6 355.3
       C215.2 339.8 193.3 322.2 174.4 302.9
       C155.7 283.8 141.4 263.9 131.9 244.4
       C122.3 224.7 118 206.3 118 188.8
       C118 157.3 143.1 134 173.6 134
       C196.8 134 217.7 146.3 229.2 165.9
       L256 211.2
       L282.8 165.9
       C294.3 146.3 315.2 134 338.4 134
       C368.9 134 394 157.3 394 188.8
       C394 206.3 389.7 224.7 380.1 244.4
       C370.6 263.9 356.3 283.8 337.6 302.9
       C318.7 322.2 296.8 339.8 272.4 355.3
       C267.6 358.4 262 360 256 360Z"
    fill="none"
    stroke="#FFFFFF"
    stroke-width="28"
    stroke-linejoin="round"
    stroke-linecap="round"
  />
</svg>
